<svg xmlns="http://www.w3.org/2000/svg" viewBox="0 0 120 36" role="img" aria-label="Amazon">
  <path fill="#232f3e" d="M8.5 26.5c8.2 6.1 20.1 9.4 30.3 9.4 7.4 0 15.5-1.4 23-4.3 1.1-.5 2.1-.2 1.6 1-.9 2.2-3.4 5.9-4.7 7.2-2 2-4.3 2.8-7.8 2.8-9.8 0-21.8-5.8-30.5-10.5-.4-.2-.7-.6-.9-1.1z"/>
  <path fill="#ff9900" d="M62 28.5c12.5-1.2 24.5-7.5 34.2-14.2.8-.6 1.6-.2 1 .7-3.2 5.5-7.2 10.4-12.2 14.2-1 .8-2.1 1.5-3.2 2.1-1 .5-2.1.3-2.6-.6-.5-.9-.2-1.8.8-2.2z"/>
  <text x="4" y="22" font-family="Arial,Helvetica,sans-serif" font-size="18" font-weight="700" fill="#232f3e">amazon</text>
</svg>
